# xmcd
#
# Track frame offsets:
#	150
#	16302
#	34807
#	50669
#	72203
#	93553
#	109249
#	126847
#	143232
#	159625
#
# Disc length: 2306 seconds
#
# Revision: 1
# Processed by: cddbd v1.5.2PL0 Copyright (c) Steve Scherf et al.
# Submitted via: audiograbber 1.83.01
#
DISCID=8c09000a
DTITLE=Restless Heart - All American
DYEAR=2003
DGENRE=Country
TTITLE0=Big Dreams In A Small Town
TTITLE1=Say What's in your Heart
TTITLE2=That Rock Won't Roll
TTITLE3=The Bluest Eyes In Texas
TTITLE4=Tell Me What You Dream
TTITLE5=I Want Everyone To Cry
TTITLE6=Long Lost Friend
TTITLE7=When Somebody Loves You
TTITLE8=Let The Heartache Ride
TTITLE9=Hummingbird
EXTD=
EXTT0=
EXTT1=
EXTT2=
EXTT3=
EXTT4=
EXTT5=
EXTT6=
EXTT7=
EXTT8=
EXTT9=
PLAYORDER=
